<svg width="1056" height="267" viewBox="0 0 1056 267" fill="none" xmlns="http://www.w3.org/2000/svg">
<path d="M0.0113226 262.808V3.72859H34.802V114.392H172.484V3.72859H207.275V262.808H172.484V144.742H34.802V262.808H0.0113226ZM262.705 262.808V3.72859H429.256V34.0779H297.496V114.392H418.153V144.742H297.496V232.459H429.256V262.808H262.705ZM470.098 262.808V3.72859H504.889V232.459H636.649V262.808H470.098ZM662.673 262.808V3.72859H697.464V232.459H829.224V262.808H662.673ZM940.359 266.509C925.555 266.509 911.244 264.042 897.426 259.107C883.855 253.925 871.641 246.029 860.785 235.419C849.928 224.81 841.292 211.239 834.877 194.707C828.708 178.175 825.624 158.313 825.624 135.119V127.717C825.624 105.51 828.708 86.3872 834.877 70.349C841.292 54.3107 849.928 41.11 860.785 30.7469C871.641 20.137 883.855 12.3646 897.426 7.42972C911.244 2.49488 925.555 0.0274609 940.359 0.0274609C955.164 0.0274609 969.351 2.49488 982.922 7.42972C996.74 12.3646 1009.08 20.137 1019.93 30.7469C1030.79 41.11 1039.3 54.3107 1045.47 70.349C1051.89 86.3872 1055.09 105.51 1055.09 127.717V135.119C1055.09 158.313 1051.89 178.175 1045.47 194.707C1039.3 211.239 1030.79 224.81 1019.93 235.419C1009.08 246.029 996.74 253.925 982.922 259.107C969.351 264.042 955.164 266.509 940.359 266.509ZM940.359 235.419C953.93 235.419 966.514 232.088 978.111 225.426C989.954 218.764 999.577 208.031 1006.98 193.227C1014.38 178.422 1018.08 159.053 1018.08 135.119V127.717C1018.08 105.016 1014.38 86.634 1006.98 72.5697C999.577 58.2586 989.954 47.7721 978.111 41.11C966.514 34.448 953.93 31.117 940.359 31.117C927.035 31.117 914.451 34.448 902.608 41.11C890.764 47.7721 881.141 58.2586 873.739 72.5697C866.336 86.634 862.635 105.016 862.635 127.717V135.119C862.635 159.053 866.336 178.422 873.739 193.227C881.141 208.031 890.764 218.764 902.608 225.426C914.451 232.088 927.035 235.419 940.359 235.419Z" fill="#1E1E1E"/>
</svg>
